<svg xmlns="http://www.w3.org/2000/svg" width="2180" height="1360" viewBox="0 0 2180 1360" role="img" font-family="'Pretendard','Malgun Gothic','Apple SD Gothic Neo','Noto Sans KR','Segoe UI',sans-serif">
<title>Lakehouse Reference Architecture — 기능 개요</title>
<desc>Simplified view of the air-gapped lakehouse reference architecture. Same layout and paths as the detailed diagram, but each component box lists only its main functions as small tiles with one-line captions.</desc>
<defs><marker id="arrow" viewBox="0 0 10 10" refX="8" refY="5" markerWidth="7" markerHeight="7" orient="auto-start-reverse"><path d="M2 1L8 5L2 9" fill="none" stroke="context-stroke" stroke-width="1.6" stroke-linecap="round" stroke-linejoin="round"/></marker></defs>
<rect x="0" y="0" width="2180" height="1360" fill="#FFFFFF"/>
<text x="40" y="48" font-size="22" font-weight="500" fill="#2C2C2A">Lakehouse Reference Architecture — 기능 개요</text>
<text x="40" y="72" font-size="13" fill="#5F5E5A">구성요소별 핵심 기능만 타일로 표시  ·  제품 사양 · 경로 설계 근거는 lakehouse-architecture-lr.svg 와 docs/architecture.md</text>
<path d="M165 260 V90 H700 V200 H722" fill="none" stroke="#993C1D" stroke-width="1.6" stroke-dasharray="6 4" marker-end="url(#arrow)"/>
<text x="330" y="108" font-size="11" fill="#993C1D">실시간 이벤트 직결 (CDC · MQ · FDS)</text>
<path d="M290 435 H352" fill="none" stroke="#5F5E5A" stroke-width="1.6" marker-end="url(#arrow)"/>
<path d="M660 300 H690 V240 H722" fill="none" stroke="#5F5E5A" stroke-width="1.6" marker-end="url(#arrow)"/>
<path d="M722 320 H706 V400 H668" fill="none" stroke="#993C1D" stroke-width="1.6" stroke-dasharray="6 4" marker-end="url(#arrow)"/>
<path d="M660 520 H722" fill="none" stroke="#5F5E5A" stroke-width="1.6" marker-end="url(#arrow)"/>
<path d="M1030 220 H1092" fill="none" stroke="#993C1D" stroke-width="1.6" stroke-dasharray="6 4" marker-end="url(#arrow)"/>
<text x="1100" y="108" font-size="11" fill="#993C1D">Kafka → Spark Streaming</text>
<path d="M1034 430 H1065 V260 H1092" fill="none" stroke="#5F5E5A" stroke-width="1.6" marker-start="url(#arrow)" marker-end="url(#arrow)"/>
<path d="M1030 600 H1092" fill="none" stroke="#5F5E5A" stroke-width="1.6" marker-end="url(#arrow)"/>
<path d="M1030 425 H1050 V385 H1460 V500 H1492" fill="none" stroke="#185FA5" stroke-width="1.6" marker-end="url(#arrow)"/>
<text x="1150" y="378" font-size="11" fill="#185FA5">S3 직접 접근 (학습 데이터 · 문서 원본)</text>
<path d="M1430 560 H1492" fill="none" stroke="#5F5E5A" stroke-width="1.6" marker-end="url(#arrow)"/>
<text x="1436" y="548" font-size="11" fill="#5F5E5A">JDBC / ODBC</text>
<path d="M165 610 V784 H1075 V690 H1092" fill="none" stroke="#534AB7" stroke-width="1.6" stroke-dasharray="10 3 2 3" marker-end="url(#arrow)"/>
<text x="520" y="776" font-size="11" fill="#534AB7">원천 직접 페더레이션</text>
<path d="M1430 690 H1815 V364" fill="none" stroke="#0C6480" stroke-width="1.6" marker-end="url(#arrow)"/>
<text x="1500" y="682" font-size="11" fill="#0C6480">모델 호출</text>
<path d="M1900 654 V740 H1442" fill="none" stroke="#9B2D4F" stroke-width="1.6" marker-start="url(#arrow)" marker-end="url(#arrow)"/>
<text x="1610" y="732" font-size="11" fill="#9B2D4F">MCP · 메타데이터 · SQL</text>
<path d="M1995 406 V364" fill="none" stroke="#0C6480" stroke-width="1.6" marker-end="url(#arrow)"/>
<text x="2010" y="392" font-size="11" fill="#0C6480">추론 호출</text>
<path d="M880 760 V822" fill="none" stroke="#185FA5" stroke-width="1.6" marker-end="url(#arrow)"/>
<text x="893" y="770" font-size="11" fill="#185FA5">소스 워치 (S3 API)</text>
<path d="M1030 1000 H1092" fill="none" stroke="#5F5E5A" stroke-width="1.6" marker-start="url(#arrow)" marker-end="url(#arrow)"/>
<text x="1034" y="988" font-size="11" fill="#5F5E5A">upsert · 검색</text>
<path d="M1430 900 H1990 V660" fill="none" stroke="#9B2D4F" stroke-width="1.6" marker-end="url(#arrow)"/>
<text x="1450" y="890" font-size="11" fill="#9B2D4F">Vector DB 직접 조회 (Top-K)</text>
<path d="M1265 822 V768" fill="none" stroke="#5F5E5A" stroke-width="1.6" marker-start="url(#arrow)" marker-end="url(#arrow)"/>
<text x="1278" y="806" font-size="11" fill="#5F5E5A">벡터 테이블 조회</text>
<path d="M2060 654 V1210 H880 V1188" fill="none" stroke="#9B2D4F" stroke-width="1.6" marker-start="url(#arrow)" marker-end="url(#arrow)"/>
<text x="1300" y="1202" font-size="11" fill="#9B2D4F">Argus REST API (search · query · chat)</text>
<path d="M600 610 V822" fill="none" stroke="#6B6414" stroke-width="1.6" stroke-dasharray="3 3" marker-end="url(#arrow)"/>
<text x="612" y="700" font-size="11" fill="#6B6414">NiFi 리니지</text>
<path d="M1140 760 V808 H700 V900 H668" fill="none" stroke="#6B6414" stroke-width="1.6" stroke-dasharray="3 3" marker-end="url(#arrow)"/>
<text x="905" y="803" font-size="11" fill="#6B6414">Query Listener · Metadata Sync</text>
<path d="M2100 654 V1232 H510 V1188" fill="none" stroke="#6B6414" stroke-width="1.6" stroke-dasharray="3 3" marker-start="url(#arrow)" marker-end="url(#arrow)"/>
<text x="700" y="1250" font-size="11" fill="#6B6414">Agent 등록 · 미터링 · 메타데이터 API</text>
<rect x="40" y="260" width="250" height="350" rx="12" fill="#F1EFE8" stroke="#5F5E5A" stroke-width="0.9"/>
<text x="58" y="292" font-size="15" font-weight="500" fill="#2C2C2A">1. Data Source</text>
<text x="58" y="313" font-size="12.5" fill="#888780">금융권 원천 시스템</text>
<line x1="58" y1="328" x2="272" y2="328" stroke="#B4B2A9" stroke-width="0.9"/>
<rect x="58" y="336" width="214" height="46" rx="7" fill="#FFFFFF" stroke="#B4B2A9" stroke-width="0.9"/>
<rect x="58" y="344" width="3" height="30" rx="1.5" fill="#5F5E5A"/>
<text x="72" y="355" font-size="12.5" font-weight="500" fill="#2C2C2A">계정계 · 정보계</text>
<text x="72" y="372" font-size="10.5" fill="#888780">원장 · 회계 (CDC)</text>
<rect x="58" y="390" width="214" height="46" rx="7" fill="#FFFFFF" stroke="#B4B2A9" stroke-width="0.9"/>
<rect x="58" y="398" width="3" height="30" rx="1.5" fill="#5F5E5A"/>
<text x="72" y="409" font-size="12.5" font-weight="500" fill="#2C2C2A">카드 · 결제</text>
<text x="72" y="426" font-size="10.5" fill="#888780">승인 · 매입 · VAN/PG 전문</text>
<rect x="58" y="444" width="214" height="46" rx="7" fill="#FFFFFF" stroke="#B4B2A9" stroke-width="0.9"/>
<rect x="58" y="452" width="3" height="30" rx="1.5" fill="#5F5E5A"/>
<text x="72" y="463" font-size="12.5" font-weight="500" fill="#2C2C2A">채널</text>
<text x="72" y="480" font-size="10.5" fill="#888780">인터넷뱅킹 · 앱 · ATM · 콜센터</text>
<rect x="58" y="498" width="214" height="46" rx="7" fill="#FFFFFF" stroke="#B4B2A9" stroke-width="0.9"/>
<rect x="58" y="506" width="3" height="30" rx="1.5" fill="#5F5E5A"/>
<text x="72" y="517" font-size="12.5" font-weight="500" fill="#2C2C2A">대외계 · 시장</text>
<text x="72" y="534" font-size="10.5" fill="#888780">금결원 · 신정원 · KRX 시세</text>
<rect x="58" y="552" width="214" height="46" rx="7" fill="#FFFFFF" stroke="#B4B2A9" stroke-width="0.9"/>
<rect x="58" y="560" width="3" height="30" rx="1.5" fill="#5F5E5A"/>
<text x="72" y="571" font-size="12.5" font-weight="500" fill="#2C2C2A">리스크 · 컴플라이언스</text>
<text x="72" y="588" font-size="10.5" fill="#888780">FDS · AML · 약관 / 규정 문서</text>
<rect x="360" y="260" width="300" height="350" rx="12" fill="#E1F5EE" stroke="#0F6E56" stroke-width="0.9"/>
<text x="378" y="292" font-size="15" font-weight="500" fill="#04342C">2. Ingestion</text>
<text x="378" y="313" font-size="12.5" fill="#0F6E56">Cloudera CFM (Apache NiFi)</text>
<line x1="378" y1="328" x2="642" y2="328" stroke="#5DCAA5" stroke-width="0.9"/>
<rect x="378" y="336" width="264" height="46" rx="7" fill="#FFFFFF" stroke="#5DCAA5" stroke-width="0.9"/>
<rect x="378" y="344" width="3" height="30" rx="1.5" fill="#0F6E56"/>
<text x="392" y="355" font-size="12.5" font-weight="500" fill="#04342C">수집 · 연결</text>
<text x="392" y="372" font-size="10.5" fill="#0F6E56">DB · 파일 · MQ · API · 스트림</text>
<rect x="378" y="390" width="264" height="46" rx="7" fill="#FFFFFF" stroke="#5DCAA5" stroke-width="0.9"/>
<rect x="378" y="398" width="3" height="30" rx="1.5" fill="#0F6E56"/>
<text x="392" y="409" font-size="12.5" font-weight="500" fill="#04342C">변환</text>
<text x="392" y="426" font-size="10.5" fill="#0F6E56">CSV / XML / JSON → Parquet · Avro</text>
<rect x="378" y="444" width="264" height="46" rx="7" fill="#FFFFFF" stroke="#5DCAA5" stroke-width="0.9"/>
<rect x="378" y="452" width="3" height="30" rx="1.5" fill="#0F6E56"/>
<text x="392" y="463" font-size="12.5" font-weight="500" fill="#04342C">라우팅 · 흐름 제어</text>
<text x="392" y="480" font-size="10.5" fill="#0F6E56">조건 분기 · 우선순위 · Back-pressure</text>
<rect x="378" y="498" width="264" height="46" rx="7" fill="#FFFFFF" stroke="#5DCAA5" stroke-width="0.9"/>
<rect x="378" y="506" width="3" height="30" rx="1.5" fill="#0F6E56"/>
<text x="392" y="517" font-size="12.5" font-weight="500" fill="#04342C">전달 보증 · 이력</text>
<text x="392" y="534" font-size="10.5" fill="#0F6E56">Guaranteed Delivery · Provenance</text>
<rect x="378" y="552" width="264" height="46" rx="7" fill="#FFFFFF" stroke="#5DCAA5" stroke-width="0.9"/>
<rect x="378" y="560" width="3" height="30" rx="1.5" fill="#0F6E56"/>
<text x="392" y="571" font-size="12.5" font-weight="500" fill="#04342C">운영 · 보안</text>
<text x="392" y="588" font-size="10.5" fill="#0F6E56">GUI 흐름 설계 · 모니터링 · TLS</text>
<rect x="730" y="120" width="300" height="242" rx="12" fill="#FAECE7" stroke="#993C1D" stroke-width="0.9"/>
<text x="748" y="152" font-size="15" font-weight="500" fill="#4A1B0C">3. Streaming Bus</text>
<text x="748" y="173" font-size="12.5" fill="#993C1D">Cloudera CDP</text>
<line x1="748" y1="188" x2="1012" y2="188" stroke="#F0997B" stroke-width="0.9"/>
<rect x="748" y="196" width="264" height="46" rx="7" fill="#FFFFFF" stroke="#F0997B" stroke-width="0.9"/>
<rect x="748" y="204" width="3" height="30" rx="1.5" fill="#993C1D"/>
<text x="762" y="215" font-size="12.5" font-weight="500" fill="#4A1B0C">Apache Kafka</text>
<text x="762" y="232" font-size="10.5" fill="#993C1D">raw.* / cdc.* / evt.* 토픽 · 복제 3</text>
<rect x="748" y="250" width="264" height="46" rx="7" fill="#FFFFFF" stroke="#F0997B" stroke-width="0.9"/>
<rect x="748" y="258" width="3" height="30" rx="1.5" fill="#993C1D"/>
<text x="762" y="269" font-size="12.5" font-weight="500" fill="#4A1B0C">Streams Messaging Manager</text>
<text x="762" y="286" font-size="10.5" fill="#993C1D">토픽 · 컨슈머 · 지연 관제</text>
<rect x="748" y="304" width="264" height="46" rx="7" fill="#FFFFFF" stroke="#F0997B" stroke-width="0.9"/>
<rect x="748" y="312" width="3" height="30" rx="1.5" fill="#993C1D"/>
<text x="762" y="323" font-size="12.5" font-weight="500" fill="#4A1B0C">ZooKeeper</text>
<text x="762" y="340" font-size="10.5" fill="#993C1D">브로커 등록 · 리더 선출</text>
<rect x="730" y="410" width="300" height="350" rx="12" fill="#E6F1FB" stroke="#185FA5" stroke-width="0.9"/>
<text x="748" y="442" font-size="15" font-weight="500" fill="#042C53">4. Storage</text>
<text x="748" y="463" font-size="12.5" fill="#185FA5">MinIO (S3 호환) + Apache Iceberg</text>
<line x1="748" y1="478" x2="1012" y2="478" stroke="#85B7EB" stroke-width="0.9"/>
<rect x="748" y="486" width="264" height="46" rx="7" fill="#FFFFFF" stroke="#85B7EB" stroke-width="0.9"/>
<rect x="748" y="494" width="3" height="30" rx="1.5" fill="#185FA5"/>
<text x="762" y="505" font-size="12.5" font-weight="500" fill="#042C53">Bronze</text>
<text x="762" y="522" font-size="10.5" fill="#185FA5">원천 그대로 (append)</text>
<rect x="748" y="540" width="264" height="46" rx="7" fill="#FFFFFF" stroke="#85B7EB" stroke-width="0.9"/>
<rect x="748" y="548" width="3" height="30" rx="1.5" fill="#185FA5"/>
<text x="762" y="559" font-size="12.5" font-weight="500" fill="#042C53">Silver</text>
<text x="762" y="576" font-size="10.5" fill="#185FA5">정제 · 중복제거 · SCD</text>
<rect x="748" y="594" width="264" height="46" rx="7" fill="#FFFFFF" stroke="#85B7EB" stroke-width="0.9"/>
<rect x="748" y="602" width="3" height="30" rx="1.5" fill="#185FA5"/>
<text x="762" y="613" font-size="12.5" font-weight="500" fill="#042C53">Gold</text>
<text x="762" y="630" font-size="10.5" fill="#185FA5">집계 · 마트 · 피처</text>
<rect x="748" y="648" width="264" height="46" rx="7" fill="#FFFFFF" stroke="#85B7EB" stroke-width="0.9"/>
<rect x="748" y="656" width="3" height="30" rx="1.5" fill="#185FA5"/>
<text x="762" y="667" font-size="12.5" font-weight="500" fill="#042C53">Docs</text>
<text x="762" y="684" font-size="10.5" fill="#185FA5">문서 · 이미지 원본 (RAG 입력)</text>
<rect x="748" y="702" width="264" height="46" rx="7" fill="#FFFFFF" stroke="#85B7EB" stroke-width="0.9"/>
<rect x="748" y="710" width="3" height="30" rx="1.5" fill="#185FA5"/>
<text x="762" y="721" font-size="12.5" font-weight="500" fill="#042C53">Iceberg Table · REST Catalog</text>
<text x="762" y="738" font-size="10.5" fill="#185FA5">스냅샷 · time-travel · 스키마 변경</text>
<rect x="1100" y="120" width="330" height="188" rx="12" fill="#EEEDFE" stroke="#534AB7" stroke-width="0.9"/>
<text x="1118" y="152" font-size="15" font-weight="500" fill="#26215C">5. Processing & Orchestration</text>
<text x="1118" y="173" font-size="12.5" fill="#534AB7">Cloudera CDE</text>
<line x1="1118" y1="188" x2="1412" y2="188" stroke="#AFA9EC" stroke-width="0.9"/>
<rect x="1118" y="196" width="294" height="46" rx="7" fill="#FFFFFF" stroke="#AFA9EC" stroke-width="0.9"/>
<rect x="1118" y="204" width="3" height="30" rx="1.5" fill="#534AB7"/>
<text x="1132" y="215" font-size="12.5" font-weight="500" fill="#26215C">Airflow</text>
<text x="1132" y="232" font-size="10.5" fill="#534AB7">DAG 스케줄 · 의존성 · SLA</text>
<rect x="1118" y="250" width="294" height="46" rx="7" fill="#FFFFFF" stroke="#AFA9EC" stroke-width="0.9"/>
<rect x="1118" y="258" width="3" height="30" rx="1.5" fill="#534AB7"/>
<text x="1132" y="269" font-size="12.5" font-weight="500" fill="#26215C">Spark on Kubernetes</text>
<text x="1132" y="286" font-size="10.5" fill="#534AB7">Bronze → Silver → Gold · MERGE · Compaction</text>
<rect x="1100" y="410" width="330" height="350" rx="12" fill="#FAEEDA" stroke="#854F0B" stroke-width="0.9"/>
<text x="1118" y="442" font-size="15" font-weight="500" fill="#412402">6. Data Federation</text>
<text x="1118" y="463" font-size="12.5" fill="#854F0B">Starburst Trino</text>
<line x1="1118" y1="478" x2="1412" y2="478" stroke="#EF9F27" stroke-width="0.9"/>
<rect x="1118" y="486" width="294" height="46" rx="7" fill="#FFFFFF" stroke="#EF9F27" stroke-width="0.9"/>
<rect x="1118" y="494" width="3" height="30" rx="1.5" fill="#854F0B"/>
<text x="1132" y="505" font-size="12.5" font-weight="500" fill="#412402">Coordinator · Worker</text>
<text x="1132" y="522" font-size="10.5" fill="#854F0B">HA · autoscale</text>
<rect x="1118" y="540" width="294" height="46" rx="7" fill="#FFFFFF" stroke="#EF9F27" stroke-width="0.9"/>
<rect x="1118" y="548" width="3" height="30" rx="1.5" fill="#854F0B"/>
<text x="1132" y="559" font-size="12.5" font-weight="500" fill="#412402">Connectors</text>
<text x="1132" y="576" font-size="10.5" fill="#854F0B">Iceberg · Kafka · Hive · Oracle · PostgreSQL</text>
<rect x="1118" y="594" width="294" height="46" rx="7" fill="#FFFFFF" stroke="#EF9F27" stroke-width="0.9"/>
<rect x="1118" y="602" width="3" height="30" rx="1.5" fill="#854F0B"/>
<text x="1132" y="613" font-size="12.5" font-weight="500" fill="#412402">AI Features</text>
<text x="1132" y="630" font-size="10.5" fill="#854F0B">NL-to-SQL · AI Functions · MCP Server</text>
<rect x="1118" y="648" width="294" height="46" rx="7" fill="#FFFFFF" stroke="#EF9F27" stroke-width="0.9"/>
<rect x="1118" y="656" width="3" height="30" rx="1.5" fill="#854F0B"/>
<text x="1132" y="667" font-size="12.5" font-weight="500" fill="#412402">Model Provider</text>
<text x="1132" y="684" font-size="10.5" fill="#854F0B">OpenAI 호환 · 사내 모델 (on-prem)</text>
<rect x="1118" y="702" width="294" height="46" rx="7" fill="#FFFFFF" stroke="#EF9F27" stroke-width="0.9"/>
<rect x="1118" y="710" width="3" height="30" rx="1.5" fill="#854F0B"/>
<text x="1132" y="721" font-size="12.5" font-weight="500" fill="#412402">Vector DB Support</text>
<text x="1132" y="738" font-size="10.5" fill="#854F0B">Iceberg · pgvector · Elasticsearch</text>
<rect x="1500" y="410" width="280" height="242" rx="12" fill="#EAF3DE" stroke="#3B6D11" stroke-width="0.9"/>
<text x="1518" y="442" font-size="15" font-weight="500" fill="#173404">7. Consumption</text>
<text x="1518" y="463" font-size="12.5" fill="#3B6D11">사람이 쓰는 접점</text>
<line x1="1518" y1="478" x2="1762" y2="478" stroke="#97C459" stroke-width="0.9"/>
<rect x="1518" y="486" width="244" height="46" rx="7" fill="#FFFFFF" stroke="#97C459" stroke-width="0.9"/>
<rect x="1518" y="494" width="3" height="30" rx="1.5" fill="#3B6D11"/>
<text x="1532" y="505" font-size="12.5" font-weight="500" fill="#173404">Spotfire</text>
<text x="1532" y="522" font-size="10.5" fill="#3B6D11">대시보드 · Ad-hoc 분석</text>
<rect x="1518" y="540" width="244" height="46" rx="7" fill="#FFFFFF" stroke="#97C459" stroke-width="0.9"/>
<rect x="1518" y="548" width="3" height="30" rx="1.5" fill="#3B6D11"/>
<text x="1532" y="559" font-size="12.5" font-weight="500" fill="#173404">Cloudera AI</text>
<text x="1532" y="576" font-size="10.5" fill="#3B6D11">Workbench · AI Studio · Agent Studio</text>
<rect x="1518" y="594" width="244" height="46" rx="7" fill="#FFFFFF" stroke="#97C459" stroke-width="0.9"/>
<rect x="1518" y="602" width="3" height="30" rx="1.5" fill="#3B6D11"/>
<text x="1532" y="613" font-size="12.5" font-weight="500" fill="#173404">SQL Client · Notebook · API</text>
<text x="1532" y="630" font-size="10.5" fill="#3B6D11">DBeaver · Jupyter</text>
<rect x="1850" y="120" width="290" height="242" rx="12" fill="#E2F1F7" stroke="#0C6480" stroke-width="0.9"/>
<text x="1868" y="152" font-size="15" font-weight="500" fill="#04303F">모델 서빙</text>
<text x="1868" y="173" font-size="12.5" fill="#0C6480">Cloudera AI Inference (OpenAI 호환)</text>
<line x1="1868" y1="188" x2="2122" y2="188" stroke="#63B4CE" stroke-width="0.9"/>
<rect x="1868" y="196" width="254" height="46" rx="7" fill="#FFFFFF" stroke="#63B4CE" stroke-width="0.9"/>
<rect x="1868" y="204" width="3" height="30" rx="1.5" fill="#0C6480"/>
<text x="1882" y="215" font-size="12.5" font-weight="500" fill="#04303F">추론 엔드포인트</text>
<text x="1882" y="232" font-size="10.5" fill="#0C6480">사내 on-prem · 외부 호출 없음</text>
<rect x="1868" y="250" width="254" height="46" rx="7" fill="#FFFFFF" stroke="#63B4CE" stroke-width="0.9"/>
<rect x="1868" y="258" width="3" height="30" rx="1.5" fill="#0C6480"/>
<text x="1882" y="269" font-size="12.5" font-weight="500" fill="#04303F">생성 모델</text>
<text x="1882" y="286" font-size="10.5" fill="#0C6480">NL-to-SQL · 답변 생성</text>
<rect x="1868" y="304" width="254" height="46" rx="7" fill="#FFFFFF" stroke="#63B4CE" stroke-width="0.9"/>
<rect x="1868" y="312" width="3" height="30" rx="1.5" fill="#0C6480"/>
<text x="1882" y="323" font-size="12.5" font-weight="500" fill="#04303F">임베딩 · 리랭커</text>
<text x="1882" y="340" font-size="10.5" fill="#0C6480">한국어 모델 · 고객 보유</text>
<rect x="1850" y="410" width="290" height="242" rx="12" fill="#FBEBF0" stroke="#9B2D4F" stroke-width="0.9"/>
<text x="1868" y="442" font-size="15" font-weight="500" fill="#450F21">고객 AI Agent</text>
<text x="1868" y="463" font-size="12.5" fill="#9B2D4F">업무 질의 · 문서 조회</text>
<line x1="1868" y1="478" x2="2122" y2="478" stroke="#E294AC" stroke-width="0.9"/>
<rect x="1868" y="486" width="254" height="46" rx="7" fill="#FFFFFF" stroke="#E294AC" stroke-width="0.9"/>
<rect x="1868" y="494" width="3" height="30" rx="1.5" fill="#9B2D4F"/>
<text x="1882" y="505" font-size="12.5" font-weight="500" fill="#450F21">Agent 런타임</text>
<text x="1882" y="522" font-size="10.5" fill="#9B2D4F">세션 · 도구 계획 · 권한 위임</text>
<rect x="1868" y="540" width="254" height="46" rx="7" fill="#FFFFFF" stroke="#E294AC" stroke-width="0.9"/>
<rect x="1868" y="548" width="3" height="30" rx="1.5" fill="#9B2D4F"/>
<text x="1882" y="559" font-size="12.5" font-weight="500" fill="#450F21">도구 (MCP)</text>
<text x="1882" y="576" font-size="10.5" fill="#9B2D4F">Starburst · 문서 검색 · Catalog</text>
<rect x="1868" y="594" width="254" height="46" rx="7" fill="#FFFFFF" stroke="#E294AC" stroke-width="0.9"/>
<rect x="1868" y="602" width="3" height="30" rx="1.5" fill="#9B2D4F"/>
<text x="1882" y="613" font-size="12.5" font-weight="500" fill="#450F21">감사</text>
<text x="1882" y="630" font-size="10.5" fill="#9B2D4F">질문 → 근거 → SQL → 답변 기록</text>
<rect x="360" y="830" width="300" height="350" rx="12" fill="#F3F1DC" stroke="#6B6414" stroke-width="0.9"/>
<text x="378" y="862" font-size="15" font-weight="500" fill="#2C2A05">Data Catalog</text>
<text x="378" y="883" font-size="12.5" fill="#6B6414">Argus Catalog</text>
<line x1="378" y1="898" x2="642" y2="898" stroke="#CFC760" stroke-width="0.9"/>
<rect x="378" y="906" width="264" height="46" rx="7" fill="#FFFFFF" stroke="#CFC760" stroke-width="0.9"/>
<rect x="378" y="914" width="3" height="30" rx="1.5" fill="#6B6414"/>
<text x="392" y="925" font-size="12.5" font-weight="500" fill="#2C2A05">데이터 카탈로그</text>
<text x="392" y="942" font-size="10.5" fill="#6B6414">데이터셋 · 스키마 · 리니지 · 용어집</text>
<rect x="378" y="960" width="264" height="46" rx="7" fill="#FFFFFF" stroke="#CFC760" stroke-width="0.9"/>
<rect x="378" y="968" width="3" height="30" rx="1.5" fill="#6B6414"/>
<text x="392" y="979" font-size="12.5" font-weight="500" fill="#2C2A05">메타데이터 수집</text>
<text x="392" y="996" font-size="10.5" fill="#6B6414">11종 플랫폼 · Trino Query Listener</text>
<rect x="378" y="1014" width="264" height="46" rx="7" fill="#FFFFFF" stroke="#CFC760" stroke-width="0.9"/>
<rect x="378" y="1022" width="3" height="30" rx="1.5" fill="#6B6414"/>
<text x="392" y="1033" font-size="12.5" font-weight="500" fill="#2C2A05">데이터 품질</text>
<text x="392" y="1050" font-size="10.5" fill="#6B6414">프로파일링 · 규칙 검증 · 점수 전파</text>
<rect x="378" y="1068" width="264" height="46" rx="7" fill="#FFFFFF" stroke="#CFC760" stroke-width="0.9"/>
<rect x="378" y="1076" width="3" height="30" rx="1.5" fill="#6B6414"/>
<text x="392" y="1087" font-size="12.5" font-weight="500" fill="#2C2A05">거버넌스</text>
<text x="392" y="1104" font-size="10.5" fill="#6B6414">API 카탈로그 · AI Agent 카탈로그</text>
<rect x="378" y="1122" width="264" height="46" rx="7" fill="#FFFFFF" stroke="#CFC760" stroke-width="0.9"/>
<rect x="378" y="1130" width="3" height="30" rx="1.5" fill="#6B6414"/>
<text x="392" y="1141" font-size="12.5" font-weight="500" fill="#2C2A05">모델 레지스트리</text>
<text x="392" y="1158" font-size="10.5" fill="#6B6414">MLflow · OCI · 에어갭 반입</text>
<rect x="730" y="830" width="300" height="350" rx="12" fill="#F6E9F7" stroke="#7B2E86" stroke-width="0.9"/>
<text x="748" y="862" font-size="15" font-weight="500" fill="#350E3A">RAG</text>
<text x="748" y="883" font-size="12.5" fill="#7B2E86">Argus RAG Studio</text>
<line x1="748" y1="898" x2="1012" y2="898" stroke="#CE97D6" stroke-width="0.9"/>
<rect x="748" y="906" width="264" height="46" rx="7" fill="#FFFFFF" stroke="#CE97D6" stroke-width="0.9"/>
<rect x="748" y="914" width="3" height="30" rx="1.5" fill="#7B2E86"/>
<text x="762" y="925" font-size="12.5" font-weight="500" fill="#350E3A">문서 반입</text>
<text x="762" y="942" font-size="10.5" fill="#7B2E86">S3 소스 · 소스 워치 · 라우팅</text>
<rect x="748" y="960" width="264" height="46" rx="7" fill="#FFFFFF" stroke="#CE97D6" stroke-width="0.9"/>
<rect x="748" y="968" width="3" height="30" rx="1.5" fill="#7B2E86"/>
<text x="762" y="979" font-size="12.5" font-weight="500" fill="#350E3A">인제스천</text>
<text x="762" y="996" font-size="10.5" fill="#7B2E86">파싱 · 청킹 · 임베딩 · 색인</text>
<rect x="748" y="1014" width="264" height="46" rx="7" fill="#FFFFFF" stroke="#CE97D6" stroke-width="0.9"/>
<rect x="748" y="1022" width="3" height="30" rx="1.5" fill="#7B2E86"/>
<text x="762" y="1033" font-size="12.5" font-weight="500" fill="#350E3A">검색 · 생성</text>
<text x="762" y="1050" font-size="10.5" fill="#7B2E86">하이브리드 · 리랭크 · 인용 답변</text>
<rect x="748" y="1068" width="264" height="46" rx="7" fill="#FFFFFF" stroke="#CE97D6" stroke-width="0.9"/>
<rect x="748" y="1076" width="3" height="30" rx="1.5" fill="#7B2E86"/>
<text x="762" y="1087" font-size="12.5" font-weight="500" fill="#350E3A">REST API</text>
<text x="762" y="1104" font-size="10.5" fill="#7B2E86">search · query · chat · API 키</text>
<rect x="748" y="1122" width="264" height="46" rx="7" fill="#FFFFFF" stroke="#CE97D6" stroke-width="0.9"/>
<rect x="748" y="1130" width="3" height="30" rx="1.5" fill="#7B2E86"/>
<text x="762" y="1141" font-size="12.5" font-weight="500" fill="#350E3A">평가 · 운영</text>
<text x="762" y="1158" font-size="10.5" fill="#7B2E86">골든셋 · 트레이스 · 피드백</text>
<rect x="1100" y="830" width="330" height="296" rx="12" fill="#E9EEF2" stroke="#3E5D72" stroke-width="0.9"/>
<text x="1118" y="862" font-size="15" font-weight="500" fill="#12242E">Vector DB</text>
<text x="1118" y="883" font-size="12.5" fill="#3E5D72">PostgreSQL + pgvector (기본)</text>
<line x1="1118" y1="898" x2="1412" y2="898" stroke="#9BB3C2" stroke-width="0.9"/>
<rect x="1118" y="906" width="294" height="46" rx="7" fill="#FFFFFF" stroke="#9BB3C2" stroke-width="0.9"/>
<rect x="1118" y="914" width="3" height="30" rx="1.5" fill="#3E5D72"/>
<text x="1132" y="925" font-size="12.5" font-weight="500" fill="#12242E">저장 대상</text>
<text x="1132" y="942" font-size="10.5" fill="#3E5D72">청크 · 벡터 · tsvector · 메타데이터</text>
<rect x="1118" y="960" width="294" height="46" rx="7" fill="#FFFFFF" stroke="#9BB3C2" stroke-width="0.9"/>
<rect x="1118" y="968" width="3" height="30" rx="1.5" fill="#3E5D72"/>
<text x="1132" y="979" font-size="12.5" font-weight="500" fill="#12242E">교체 가능 백엔드</text>
<text x="1132" y="996" font-size="10.5" fill="#3E5D72">Qdrant · Weaviate · Milvus</text>
<rect x="1118" y="1014" width="294" height="46" rx="7" fill="#FFFFFF" stroke="#9BB3C2" stroke-width="0.9"/>
<rect x="1118" y="1022" width="3" height="30" rx="1.5" fill="#3E5D72"/>
<text x="1132" y="1033" font-size="12.5" font-weight="500" fill="#12242E">검색</text>
<text x="1132" y="1050" font-size="10.5" fill="#3E5D72">벡터 + 렉시컬 → RRF → 리랭크</text>
<rect x="1118" y="1068" width="294" height="46" rx="7" fill="#FFFFFF" stroke="#9BB3C2" stroke-width="0.9"/>
<rect x="1118" y="1076" width="3" height="30" rx="1.5" fill="#3E5D72"/>
<text x="1132" y="1087" font-size="12.5" font-weight="500" fill="#12242E">호출 주체</text>
<text x="1132" y="1104" font-size="10.5" fill="#3E5D72">RAG Studio · AI Agent · Trino</text>
<line x1="40" y1="1270" x2="2140" y2="1270" stroke="#D3D1C7" stroke-width="0.9"/>
<text x="40" y="1290" font-size="11" fill="#888780">배치 : Source → CFM → MinIO   |   실시간 : Source / CFM → Kafka → Spark Streaming → MinIO   |   조회 : Trino → Spotfire · Cloudera AI   |   Agent : AI Agent → MCP → Trino · 사내 모델</text>
<text x="40" y="1308" font-size="11" fill="#888780">RAG : MinIO docs/ → Argus RAG Studio → Vector DB → AI Agent (직접 조회 또는 REST API)   |   카탈로그 : NiFi · Trino → Argus Catalog ↔ AI Agent</text>
<text x="40" y="1326" font-size="11" fill="#888780">실선 = 상시 흐름 · 주황 점선 = 스트리밍 · 파랑 = S3 직접 접근 · 보라 일점쇄선 = 원천 페더레이션 · 청록 = 모델 호출 · 자주 = Agent 호출 · 올리브 점선 = 메타데이터 · 리니지</text>
</svg>
