<svg xmlns="http://www.w3.org/2000/svg" width="2180" height="1150" viewBox="0 0 2180 1150" role="img" font-family="'Pretendard','Malgun Gothic','Apple SD Gothic Neo','Noto Sans KR','Segoe UI',sans-serif">
<title>Lakehouse Reference Architecture</title>
<desc>Air-gapped modern lakehouse reference architecture, left to right: financial data sources, Cloudera CFM ingestion, Cloudera CDP streaming bus, MinIO storage with Iceberg, Cloudera CDE processing, Starburst Trino federation with an on-premises model provider, consumption, a customer AI agent calling Starburst over MCP, and internally served customer models.</desc>
<defs><marker id="arrow" viewBox="0 0 10 10" refX="8" refY="5" markerWidth="7" markerHeight="7" orient="auto-start-reverse"><path d="M2 1L8 5L2 9" fill="none" stroke="context-stroke" stroke-width="1.6" stroke-linecap="round" stroke-linejoin="round"/></marker></defs>
<rect x="0" y="0" width="2180" height="1150" fill="#FFFFFF"/>
<text x="40" y="48" font-size="22" font-weight="500" fill="#2C2C2A">Lakehouse Reference Architecture</text>
<text x="40" y="72" font-size="13" fill="#5F5E5A">Cloudera CFM · CDP · CDE  |  Starburst Trino  |  MinIO  |  Spotfire · Cloudera AI  |  고객 AI Agent</text>
<path d="M165 260 V100 H700 V200 H722" fill="none" stroke="#993C1D" stroke-width="1.6" stroke-dasharray="6 4" marker-end="url(#arrow)"/>
<text x="340" y="120" font-size="11" fill="#993C1D">실시간 이벤트 직결 : CDC · MQ · 채널 로그 · FDS</text>
<path d="M290 505 H352" fill="none" stroke="#5F5E5A" stroke-width="1.6" marker-end="url(#arrow)"/>
<path d="M660 320 H690 V240 H722" fill="none" stroke="#5F5E5A" stroke-width="1.6" marker-end="url(#arrow)"/>
<path d="M722 300 H706 V420 H668" fill="none" stroke="#993C1D" stroke-width="1.6" stroke-dasharray="6 4" marker-end="url(#arrow)"/>
<path d="M660 600 H722" fill="none" stroke="#5F5E5A" stroke-width="1.6" marker-end="url(#arrow)"/>
<path d="M1030 250 H1092" fill="none" stroke="#993C1D" stroke-width="1.6" stroke-dasharray="6 4" marker-end="url(#arrow)"/>
<text x="1100" y="128" font-size="11" fill="#993C1D">Kafka 소비 → Spark Structured Streaming</text>
<path d="M1034 460 H1065 V300 H1092" fill="none" stroke="#5F5E5A" stroke-width="1.6" marker-start="url(#arrow)" marker-end="url(#arrow)"/>
<path d="M1030 650 H1092" fill="none" stroke="#5F5E5A" stroke-width="1.6" marker-end="url(#arrow)"/>
<path d="M1030 448 H1050 V422 H1460 V540 H1492" fill="none" stroke="#185FA5" stroke-width="1.6" marker-end="url(#arrow)"/>
<text x="1150" y="414" font-size="11" fill="#185FA5">S3 API 직접 접근 (학습 데이터 · 문서 원본)</text>
<path d="M1430 620 H1492" fill="none" stroke="#5F5E5A" stroke-width="1.6" marker-end="url(#arrow)"/>
<text x="1436" y="608" font-size="11" fill="#5F5E5A">JDBC/ODBC</text>
<path d="M165 750 V1030 H1265 V974" fill="none" stroke="#534AB7" stroke-width="1.6" stroke-dasharray="10 3 2 3" marker-end="url(#arrow)"/>
<text x="520" y="1020" font-size="11" fill="#534AB7">Multi Data Source의 Data Federation</text>
<path d="M1430 860 H1815 V412" fill="none" stroke="#0C6480" stroke-width="1.6" marker-end="url(#arrow)"/>
<text x="1500" y="852" font-size="11" fill="#0C6480">Model Provider 호출</text>
<path d="M1900 772 V900 H1442" fill="none" stroke="#9B2D4F" stroke-width="1.6" marker-start="url(#arrow)" marker-end="url(#arrow)"/>
<text x="1610" y="892" font-size="11" fill="#9B2D4F">MCP · 메타데이터 · SQL</text>
<path d="M1995 436 V412" fill="none" stroke="#0C6480" stroke-width="1.6" marker-end="url(#arrow)"/>
<text x="2010" y="431" font-size="11" fill="#0C6480">추론 호출</text>
<rect x="40" y="260" width="250" height="490" rx="12" fill="#F1EFE8" stroke="#5F5E5A" stroke-width="0.9"/>
<text x="58" y="292" font-size="15" font-weight="500" fill="#2C2C2A">1. Data Source Layer</text>
<text x="58" y="313" font-size="12.5" fill="#888780">금융권 원천 시스템</text>
<line x1="58" y1="328" x2="272" y2="328" stroke="#B4B2A9" stroke-width="0.9"/>
<text x="58" y="354" font-size="12.5" font-weight="500" fill="#2C2C2A">계정계 · 정보계</text>
<text x="72" y="375" font-size="11.5" fill="#444441">Oracle Exadata · DB2 · DW</text>
<text x="72" y="394" font-size="11.5" fill="#444441">여·수신 원장, 회계 (CDC)</text>
<text x="58" y="428" font-size="12.5" font-weight="500" fill="#2C2C2A">카드 · 결제</text>
<text x="72" y="449" font-size="11.5" fill="#444441">승인 / 매입 거래 원장</text>
<text x="72" y="468" font-size="11.5" fill="#444441">VAN · PG 전문 로그</text>
<text x="58" y="502" font-size="12.5" font-weight="500" fill="#2C2C2A">채널</text>
<text x="72" y="523" font-size="11.5" fill="#444441">인터넷뱅킹 · 모바일앱</text>
<text x="72" y="542" font-size="11.5" fill="#444441">ATM · 콜센터 STT</text>
<text x="58" y="576" font-size="12.5" font-weight="500" fill="#2C2C2A">대외계 · 시장 데이터</text>
<text x="72" y="597" font-size="11.5" fill="#444441">금융결제원 · 신용정보원</text>
<text x="72" y="616" font-size="11.5" fill="#444441">KRX · Bloomberg 시세</text>
<text x="58" y="650" font-size="12.5" font-weight="500" fill="#2C2C2A">리스크 · 컴플라이언스</text>
<text x="72" y="671" font-size="11.5" fill="#444441">FDS 이벤트, AML / STR</text>
<text x="72" y="690" font-size="11.5" fill="#444441">약관 · 규정 · 상품설명서</text>
<text x="58" y="722" font-size="10.5" fill="#888780">JDBC/CDC · MQ · SFTP · REST</text>
<rect x="360" y="260" width="300" height="490" rx="12" fill="#E1F5EE" stroke="#0F6E56" stroke-width="0.9"/>
<text x="378" y="292" font-size="15" font-weight="500" fill="#04342C">2. Ingestion Layer</text>
<text x="378" y="313" font-size="12.5" fill="#0F6E56">Cloudera CFM (Apache NiFi)</text>
<line x1="378" y1="328" x2="642" y2="328" stroke="#5DCAA5" stroke-width="0.9"/>
<text x="378" y="354" font-size="12.5" font-weight="500" fill="#04342C">수집 · 연결 (Connectivity)</text>
<text x="392" y="375" font-size="11.5" fill="#085041">DB · 파일 · MQ · API · 스트림</text>
<text x="392" y="394" font-size="11.5" fill="#085041">400+ 프로세서, No-Code 연동</text>
<text x="378" y="428" font-size="12.5" font-weight="500" fill="#04342C">변환 (Transformation)</text>
<text x="392" y="449" font-size="11.5" fill="#085041">CSV / XML / JSON → Parquet · Avro</text>
<text x="392" y="468" font-size="11.5" fill="#085041">스키마 검증 · 레코드 단위 처리</text>
<text x="378" y="502" font-size="12.5" font-weight="500" fill="#04342C">라우팅 · 흐름 제어</text>
<text x="392" y="523" font-size="11.5" fill="#085041">조건 분기 · 우선순위 큐</text>
<text x="392" y="542" font-size="11.5" fill="#085041">Back-pressure · 재시도</text>
<text x="378" y="576" font-size="12.5" font-weight="500" fill="#04342C">전달 보증 · 추적</text>
<text x="392" y="597" font-size="11.5" fill="#085041">Guaranteed Delivery</text>
<text x="392" y="616" font-size="11.5" fill="#085041">Data Provenance (이력 추적)</text>
<text x="378" y="650" font-size="12.5" font-weight="500" fill="#04342C">운영 · 보안</text>
<text x="392" y="671" font-size="11.5" fill="#085041">GUI 흐름 설계 · 실시간 모니터링</text>
<text x="392" y="690" font-size="11.5" fill="#085041">Site-to-Site · TLS · 파라미터</text>
<text x="378" y="722" font-size="10.5" fill="#0F6E56">배치 · 마이크로배치 · 스트리밍</text>
<rect x="730" y="120" width="300" height="265" rx="12" fill="#FAECE7" stroke="#993C1D" stroke-width="0.9"/>
<text x="748" y="152" font-size="15" font-weight="500" fill="#4A1B0C">3. Streaming Bus Layer</text>
<text x="748" y="173" font-size="12.5" fill="#993C1D">Cloudera CDP</text>
<line x1="748" y1="188" x2="1012" y2="188" stroke="#F0997B" stroke-width="0.9"/>
<text x="748" y="214" font-size="12.5" font-weight="500" fill="#4A1B0C">Apache Kafka</text>
<text x="762" y="235" font-size="11.5" fill="#712B13">topics : raw.* / cdc.* / evt.*</text>
<text x="762" y="254" font-size="11.5" fill="#712B13">partition · replication = 3</text>
<text x="748" y="288" font-size="12.5" font-weight="500" fill="#4A1B0C">Streams Messaging Manager</text>
<text x="762" y="309" font-size="11.5" fill="#712B13">토픽 · 컨슈머 · 지연(lag) 관제</text>
<text x="748" y="343" font-size="12.5" font-weight="500" fill="#4A1B0C">ZooKeeper Ensemble (3 / 5 EA)</text>
<text x="762" y="364" font-size="11.5" fill="#712B13">브로커 등록 · 리더 선출</text>
<rect x="730" y="430" width="300" height="440" rx="12" fill="#E6F1FB" stroke="#185FA5" stroke-width="0.9"/>
<text x="748" y="462" font-size="15" font-weight="500" fill="#042C53">4. Storage Layer</text>
<text x="748" y="483" font-size="12.5" fill="#185FA5">MinIO (S3 호환 스토리지)</text>
<line x1="748" y1="498" x2="1012" y2="498" stroke="#85B7EB" stroke-width="0.9"/>
<rect x="748" y="512" width="274" height="52" rx="7" fill="#FFFFFF" stroke="#B5D4F4" stroke-width="0.9"/>
<text x="762" y="534" font-size="12" fill="#0C447C">s3a://lake/bronze/</text>
<text x="762" y="553" font-size="11" fill="#185FA5">원천 그대로 (append)</text>
<rect x="748" y="574" width="274" height="52" rx="7" fill="#FFFFFF" stroke="#B5D4F4" stroke-width="0.9"/>
<text x="762" y="596" font-size="12" fill="#0C447C">s3a://lake/silver/</text>
<text x="762" y="615" font-size="11" fill="#185FA5">정제 · 중복제거 · SCD</text>
<rect x="748" y="636" width="274" height="52" rx="7" fill="#FFFFFF" stroke="#B5D4F4" stroke-width="0.9"/>
<text x="762" y="658" font-size="12" fill="#0C447C">s3a://lake/gold/</text>
<text x="762" y="677" font-size="11" fill="#185FA5">집계 · 마트 · 피처</text>
<rect x="748" y="698" width="274" height="52" rx="7" fill="#FFFFFF" stroke="#B5D4F4" stroke-width="0.9"/>
<text x="762" y="720" font-size="12" fill="#0C447C">s3a://lake/docs/</text>
<text x="762" y="739" font-size="11" fill="#185FA5">문서 · 이미지 · 임베딩 (RAG)</text>
<line x1="748" y1="772" x2="1012" y2="772" stroke="#85B7EB" stroke-width="0.9"/>
<text x="748" y="794" font-size="12" fill="#0C447C">Table Format : Iceberg Table</text>
<text x="748" y="813" font-size="12" fill="#0C447C">snapshot · time-travel · schema evol.</text>
<text x="748" y="841" font-size="12" fill="#0C447C">Catalog : Iceberg REST Catalog</text>
<rect x="1100" y="140" width="330" height="260" rx="12" fill="#EEEDFE" stroke="#534AB7" stroke-width="0.9"/>
<text x="1118" y="172" font-size="15" font-weight="500" fill="#26215C">5. Processing &amp; Orchestration Layer</text>
<text x="1118" y="193" font-size="12.5" fill="#534AB7">Cloudera CDE</text>
<line x1="1118" y1="208" x2="1412" y2="208" stroke="#AFA9EC" stroke-width="0.9"/>
<text x="1118" y="234" font-size="12.5" font-weight="500" fill="#3C3489">Airflow (DAG 스케줄 · 의존성 · SLA)</text>
<text x="1132" y="254" font-size="11.5" fill="#534AB7">├ NiFi 흐름 트리거 (REST API)</text>
<text x="1132" y="274" font-size="11.5" fill="#534AB7">├ Spark Job 제출</text>
<text x="1132" y="294" font-size="11.5" fill="#534AB7">└ Trino DDL / MERGE 실행 (JDBC)</text>
<text x="1118" y="324" font-size="12.5" font-weight="500" fill="#3C3489">Spark on K8s</text>
<text x="1132" y="344" font-size="11.5" fill="#534AB7">├ Bronze → Silver → Gold 변환</text>
<text x="1132" y="364" font-size="11.5" fill="#534AB7">└ Iceberg MERGE · Compaction</text>
<rect x="1100" y="440" width="330" height="530" rx="12" fill="#FAEEDA" stroke="#854F0B" stroke-width="0.9"/>
<text x="1118" y="472" font-size="15" font-weight="500" fill="#412402">6. Data Federation Layer</text>
<text x="1118" y="493" font-size="12.5" fill="#854F0B">Starburst Trino</text>
<line x1="1118" y1="508" x2="1412" y2="508" stroke="#EF9F27" stroke-width="0.9"/>
<text x="1118" y="534" font-size="12" fill="#633806">Coordinator ×1 (HA)</text>
<text x="1118" y="555" font-size="12" fill="#633806">Worker ×N (autoscale)</text>
<text x="1118" y="589" font-size="12.5" font-weight="500" fill="#412402">Connectors</text>
<text x="1132" y="610" font-size="11.5" fill="#633806">├ Iceberg → MinIO</text>
<text x="1132" y="629" font-size="11.5" fill="#633806">├ Kafka → 실시간 조회</text>
<text x="1132" y="648" font-size="11.5" fill="#633806">├ Hive → 레거시 HDFS</text>
<text x="1132" y="667" font-size="11.5" fill="#633806">└ Oracle → 페더레이션</text>
<text x="1118" y="701" font-size="12.5" font-weight="500" fill="#412402">AI Features</text>
<text x="1132" y="722" font-size="11.5" fill="#633806">├ NL-to-SQL (AIDA)</text>
<text x="1132" y="741" font-size="11.5" fill="#633806">├ AI Agent · AI Functions</text>
<text x="1132" y="760" font-size="11.5" fill="#633806">├ RAG</text>
<text x="1132" y="779" font-size="11.5" fill="#633806">└ MCP Server</text>
<text x="1118" y="813" font-size="12.5" font-weight="500" fill="#412402">Model Provider</text>
<text x="1132" y="834" font-size="11.5" fill="#633806">├ OpenAI 호환 엔드포인트</text>
<text x="1132" y="853" font-size="11.5" fill="#633806">└ 사내 모델 연동 (on-prem)</text>
<text x="1118" y="887" font-size="12.5" font-weight="500" fill="#412402">Vector DB Support</text>
<text x="1132" y="908" font-size="11.5" fill="#633806">├ Iceberg</text>
<text x="1132" y="927" font-size="11.5" fill="#633806">├ PostgreSQL / PGVector</text>
<text x="1132" y="946" font-size="11.5" fill="#633806">└ Elasticsearch</text>
<rect x="1500" y="440" width="280" height="330" rx="12" fill="#EAF3DE" stroke="#3B6D11" stroke-width="0.9"/>
<text x="1518" y="472" font-size="15" font-weight="500" fill="#173404">7. Consumption Layer</text>
<line x1="1518" y1="487" x2="1762" y2="487" stroke="#97C459" stroke-width="0.9"/>
<text x="1518" y="513" font-size="12.5" font-weight="500" fill="#173404">Spotfire</text>
<text x="1532" y="534" font-size="11.5" fill="#27500A">대시보드 · Ad-hoc 분석</text>
<text x="1532" y="553" font-size="11.5" fill="#27500A">In-DB 모드로 Trino 직접 질의</text>
<text x="1518" y="587" font-size="12.5" font-weight="500" fill="#173404">Cloudera AI</text>
<text x="1532" y="608" font-size="11.5" fill="#27500A">AI Workbench · 모델 학습</text>
<text x="1532" y="627" font-size="11.5" fill="#27500A">AI Studio · Agent Studio</text>
<text x="1518" y="661" font-size="12" fill="#27500A">SQL Client (DBeaver)</text>
<text x="1518" y="685" font-size="12" fill="#27500A">ML / Notebook (Jupyter)</text>
<text x="1518" y="709" font-size="12" fill="#27500A">API</text>
<rect x="1850" y="120" width="290" height="290" rx="12" fill="#E2F1F7" stroke="#0C6480" stroke-width="0.9"/>
<text x="1868" y="152" font-size="15" font-weight="500" fill="#04303F">모델 서빙 (고객 보유 모델)</text>
<text x="1868" y="173" font-size="12.5" fill="#0C6480">OpenAI 호환 엔드포인트</text>
<line x1="1868" y1="188" x2="2122" y2="188" stroke="#63B4CE" stroke-width="0.9"/>
<text x="1868" y="214" font-size="12.5" font-weight="500" fill="#04303F">Cloudera AI Inference Service</text>
<text x="1882" y="235" font-size="11.5" fill="#08495E">사내 추론 엔드포인트 (on-prem)</text>
<text x="1882" y="254" font-size="11.5" fill="#08495E">OpenAI 호환 API</text>
<text x="1868" y="288" font-size="12.5" font-weight="500" fill="#04303F">고객 보유 모델</text>
<text x="1882" y="309" font-size="11.5" fill="#08495E">생성 모델 (NL-to-SQL · 답변)</text>
<text x="1882" y="328" font-size="11.5" fill="#08495E">임베딩 모델 (한국어)</text>
<text x="1882" y="347" font-size="11.5" fill="#08495E">리랭커</text>
<text x="1868" y="379" font-size="10.5" fill="#0C6480">외부 모델 API 호출 없음 · 전 구간 내부</text>
<rect x="1850" y="440" width="290" height="330" rx="12" fill="#FBEBF0" stroke="#9B2D4F" stroke-width="0.9"/>
<text x="1868" y="472" font-size="15" font-weight="500" fill="#450F21">고객 AI Agent</text>
<text x="1868" y="493" font-size="12.5" fill="#9B2D4F">업무 질의 · 문서 조회</text>
<line x1="1868" y1="508" x2="2122" y2="508" stroke="#E294AC" stroke-width="0.9"/>
<text x="1868" y="534" font-size="12.5" font-weight="500" fill="#450F21">Agent 런타임</text>
<text x="1882" y="555" font-size="11.5" fill="#6E1F38">대화 세션 · 도구 호출 계획</text>
<text x="1882" y="574" font-size="11.5" fill="#6E1F38">사용자 권한 위임 (impersonation)</text>
<text x="1868" y="608" font-size="12.5" font-weight="500" fill="#450F21">도구 (MCP)</text>
<text x="1882" y="629" font-size="11.5" fill="#6E1F38">├ Starburst MCP Server</text>
<text x="1882" y="648" font-size="11.5" fill="#6E1F38">├ 문서 검색 (RAG)</text>
<text x="1882" y="667" font-size="11.5" fill="#6E1F38">└ Knowledge Graph 조회</text>
<text x="1868" y="701" font-size="12.5" font-weight="500" fill="#450F21">감사</text>
<text x="1882" y="722" font-size="11.5" fill="#6E1F38">질문 → 근거 → SQL → 답변 기록</text>
<line x1="40" y1="1075" x2="2140" y2="1075" stroke="#D3D1C7" stroke-width="0.9"/>
<text x="40" y="1095" font-size="11" fill="#888780">배치 경로 : Source → CFM → MinIO   |   실시간 경로 : Source / CFM → Kafka(CDP) → CDE Spark Streaming → MinIO   |   조회 경로 : Starburst Trino → Spotfire · Cloudera AI   |   Agent 경로 : AI Agent → MCP → Starburst → 사내 모델</text>
<text x="40" y="1113" font-size="11" fill="#888780">실선 = 상시 데이터 흐름   ·   주황 점선 = 스트리밍 경로   ·   파랑 실선 = S3 직접 접근   ·   보라 일점쇄선 = 원천 직접 페더레이션   ·   청록 실선 = 모델 호출   ·   자주 실선 = Agent 도구 호출</text>
</svg>
